<svg xmlns="http://www.w3.org/2000/svg" width="640" height="400" fill="currentColor" font-family="system-ui, sans-serif" font-size="10" style="display:block;background:#fff;height:intrinsic;max-width:100%" text-anchor="middle"><style>.plot-d6a7b5 text{white-space:pre}</style><g stroke="currentColor" stroke-opacity=".1" aria-label="y-grid"><path d="M40 370h580M40 342h580M40 314h580M40 286h580M40 258h580M40 230h580M40 202h580M40 174h580M40 146h580M40 118h580M40 90h580M40 62h580M40 34h580"/></g><g fill="none" stroke="currentColor" aria-label="y-axis tick"><path d="M40 370h-6M40 342h-6M40 314h-6M40 286h-6M40 258h-6M40 230h-6M40 202h-6M40 174h-6M40 146h-6M40 118h-6M40 90h-6M40 62h-6M40 34h-6"/></g><g aria-label="y-axis tick label" font-variant="tabular-nums" text-anchor="end"><text y=".32em" transform="translate(31 370)">0</text><text y=".32em" transform="translate(31 342)">2</text><text y=".32em" transform="translate(31 314)">4</text><text y=".32em" transform="translate(31 286)">6</text><text y=".32em" transform="translate(31 258)">8</text><text y=".32em" transform="translate(31 230)">10</text><text y=".32em" transform="translate(31 202)">12</text><text y=".32em" transform="translate(31 174)">14</text><text y=".32em" transform="translate(31 146)">16</text><text y=".32em" transform="translate(31 118)">18</text><text y=".32em" transform="translate(31 90)">20</text><text y=".32em" transform="translate(31 62)">22</text><text y=".32em" transform="translate(31 34)">24</text></g><text y=".71em" aria-label="y-axis label" text-anchor="start" transform="translate(3 3)">↑ sales</text><g stroke="currentColor" stroke-opacity=".1" aria-label="x-grid"><path d="M104 20v350M217 20v350M330 20v350M443 20v350M556 20v350"/></g><g fill="none" stroke="currentColor" aria-label="x-axis tick"><path d="M104 370v6M217 370v6M330 370v6M443 370v6M556 370v6"/></g><g aria-label="x-axis tick label"><text y=".71em" transform="translate(104 379)">Central</text><text y=".71em" transform="translate(217 379)">East</text><text y=".71em" transform="translate(330 379)">North</text><text y=".71em" transform="translate(443 379)">South</text><text y=".71em" transform="translate(556 379)">West</text></g><text aria-label="x-axis label" transform="translate(330 397)">area</text><g aria-label="bar"><path d="M279 300h102v70H279zM166 20h102v350H166zM505 160h102v210H505zM392 90h102v280H392zM53 230h102v140H53z"/></g></svg>